<svg width="176" height="512" viewBox="0 0 176 512" fill="none" xmlns="http://www.w3.org/2000/svg">
<path d="M176 77.5767C176.015 68.8738 173.377 60.3731 168.437 53.2082C163.497 46.0433 156.49 40.5548 148.35 37.4747L118.16 25.988V153.765L92.0347 184.973L92.4414 59.5334V16.2293L51.7802 0.981345V392.344C79.9889 368.964 91.6789 337.859 91.6789 270.361V248.658L117.855 217.197V270.361C117.855 394.937 76.2277 415.369 -6.77176 456.03C-13.8875 459.537 -21.2064 463.095 -28.7287 466.856C-36.251 463.095 -43.5701 459.537 -50.6857 456.03C-133.685 415.369 -175.312 395.038 -175.312 270.361V69.292L-148.933 59.1267V133.994C-147.561 193.817 -128.603 197.324 -108.272 207.031V0.523926L-205.35 37.4747C-213.49 40.5548 -220.497 46.0433 -225.437 53.2082C-230.377 60.3731 -233.015 68.8738 -233 77.5767V91.0965L-215.668 84.4891V269.955C-215.668 419.74 -153.863 450.032 -68.2716 491.964C-58.4621 497.047 -48.2969 501.774 -37.7758 507.212L-28.5762 511.939L-19.3767 507.212C-8.80479 501.824 1.36047 497.047 11.1191 491.964C96.6091 450.032 158.516 419.74 158.516 269.955V84.6924L175.847 91.2998L176 77.5767Z" fill="#9F9F9F" fill-opacity="0.06"/>
</svg>
