<svg width="12" height="12" viewBox="0 0 12 12" fill="#e4b564" xmlns="http://www.w3.org/2000/svg">
<g clip-path="url(#clip0)">
<path d="M6.00333 8.63987C6.06614 8.63893 6.1252 8.61362 6.16926 8.56956L10.9693 3.76955C11.0321 3.70955 11.0574 3.61955 11.0349 3.53612C11.0133 3.45174 10.9477 3.38612 10.8633 3.36455C10.7799 3.34205 10.6899 3.36737 10.6299 3.43018L5.99958 8.06049L1.36926 3.43018C1.30926 3.36737 1.21926 3.34206 1.13582 3.36456C1.05145 3.38612 0.985825 3.45174 0.964263 3.53612C0.941762 3.61956 0.967075 3.70956 1.02989 3.76956L5.82989 8.56956C5.87583 8.61549 5.93864 8.64081 6.00333 8.63987Z"/>
</g>
<defs>
<clipPath id="clip0">
<rect width="12" height="12" fill="white" transform="translate(12 12) rotate(180)"/>
</clipPath>
</defs>
</svg>
